<svg xmlns="http://www.w3.org/2000/svg" viewBox="0 0 1600 900" role="img" aria-label="Painel editorial de projetos e visualizacao tecnica">
  <defs>
    <linearGradient id="bg" x1="0%" y1="0%" x2="100%" y2="100%">
      <stop offset="0%" stop-color="#0e1713"/>
      <stop offset="48%" stop-color="#172720"/>
      <stop offset="100%" stop-color="#3c5548"/>
    </linearGradient>
    <radialGradient id="glow" cx="74%" cy="18%" r="42%">
      <stop offset="0%" stop-color="#d4b276" stop-opacity=".24"/>
      <stop offset="100%" stop-color="#d4b276" stop-opacity="0"/>
    </radialGradient>
  </defs>
  <rect width="1600" height="900" rx="40" fill="url(#bg)"/>
  <rect width="1600" height="900" rx="40" fill="url(#glow)"/>
  <g opacity=".16" fill="none" stroke="#f7f2e8">
    <path d="M132 128h1336v644H132z" stroke-width="2"/>
    <path d="M292 128v644M472 128v644M652 128v644M832 128v644M1012 128v644M1192 128v644" stroke-width="1"/>
    <path d="M132 258h1336M132 388h1336M132 518h1336M132 648h1336" stroke-width="1"/>
  </g>
  <g transform="translate(202 204)">
    <rect width="716" height="470" rx="34" fill="#f7f2e8" fill-opacity=".08" stroke="#f7f2e8" stroke-opacity=".1"/>
    <path d="M88 128 294 84l236 78 118-22 170 94-90 188-240 74-254-48-96-176z" fill="#d4b276" fill-opacity=".18" stroke="#d4b276" stroke-width="4"/>
    <path d="M110 152 296 110 522 190 650 162 780 238" fill="none" stroke="#f7f2e8" stroke-opacity=".64" stroke-width="4"/>
  </g>
  <g transform="translate(978 194)">
    <rect width="360" height="492" rx="32" fill="#09120e" fill-opacity=".52" stroke="#f7f2e8" stroke-opacity=".12"/>
    <rect x="54" y="56" width="252" height="142" rx="22" fill="#f7f2e8" fill-opacity=".05" stroke="#f7f2e8" stroke-opacity=".08"/>
    <path d="M84 94h152" stroke="#d4b276" stroke-opacity=".76" stroke-width="8" stroke-linecap="round"/>
    <path d="M84 128h202M84 160h134" stroke="#f7f2e8" stroke-opacity=".18" stroke-width="8" stroke-linecap="round"/>
    <rect x="54" y="234" width="252" height="110" rx="22" fill="#f7f2e8" fill-opacity=".04" stroke="#f7f2e8" stroke-opacity=".08"/>
    <path d="M84 274h184M84 308h122" stroke="#f7f2e8" stroke-opacity=".16" stroke-width="8" stroke-linecap="round"/>
    <rect x="54" y="382" width="252" height="56" rx="18" fill="#d4b276" fill-opacity=".08" stroke="#d4b276" stroke-opacity=".22"/>
  </g>
</svg>
