<svg width="1200" height="630" viewBox="0 0 1200 630" fill="none" xmlns="http://www.w3.org/2000/svg">
  <defs>
    <linearGradient id="bg" x1="80" y1="40" x2="1110" y2="598" gradientUnits="userSpaceOnUse">
      <stop stop-color="#08110C"/>
      <stop offset="0.52" stop-color="#13271B"/>
      <stop offset="1" stop-color="#1F3D2B"/>
    </linearGradient>
    <linearGradient id="accent" x1="137" y1="126" x2="531" y2="430" gradientUnits="userSpaceOnUse">
      <stop stop-color="#355E45"/>
      <stop offset="1" stop-color="#1F3D2B"/>
    </linearGradient>
  </defs>

  <rect width="1200" height="630" rx="32" fill="url(#bg)"/>
  <rect x="70" y="70" width="1060" height="490" rx="28" fill="rgba(255,255,255,0.02)" stroke="rgba(214,231,220,0.12)"/>

  <g opacity="0.18">
    <path d="M0 160H1200" stroke="#D6E7DC" stroke-width="1"/>
    <path d="M0 320H1200" stroke="#D6E7DC" stroke-width="1"/>
    <path d="M0 480H1200" stroke="#D6E7DC" stroke-width="1"/>
    <path d="M200 0V630" stroke="#D6E7DC" stroke-width="1"/>
    <path d="M400 0V630" stroke="#D6E7DC" stroke-width="1"/>
    <path d="M600 0V630" stroke="#D6E7DC" stroke-width="1"/>
    <path d="M800 0V630" stroke="#D6E7DC" stroke-width="1"/>
    <path d="M1000 0V630" stroke="#D6E7DC" stroke-width="1"/>
  </g>

  <circle cx="985" cy="315" r="175" stroke="rgba(214,231,220,0.16)" stroke-width="1.5"/>
  <circle cx="985" cy="315" r="122" stroke="rgba(214,231,220,0.12)" stroke-width="1.5"/>
  <circle cx="985" cy="315" r="72" stroke="rgba(214,231,220,0.1)" stroke-width="1.5"/>

  <g transform="translate(118 128)">
    <rect width="156" height="156" rx="78" fill="#F6F5F0"/>
    <rect y="97" width="156" height="59" fill="#1F3D2B"/>
    <circle cx="78" cy="70" r="53" fill="#F6F5F0" stroke="#304B3A" stroke-width="1.5"/>
    <text x="48" y="96" fill="#2C523B" font-family="Georgia, serif" font-size="48" font-weight="700">C</text>
    <text x="72" y="99" fill="#3A342E" font-family="Georgia, serif" font-size="22" font-style="italic">&amp;</text>
    <text x="92" y="96" fill="#2C523B" font-family="Georgia, serif" font-size="48" font-weight="700">T</text>
  </g>

  <text x="118" y="356" fill="#D6E7DC" font-family="Manrope, Arial, sans-serif" font-size="22" font-weight="700" letter-spacing="5">PLANO &amp; TERRA</text>
  <text x="118" y="432" fill="#F9FBF9" font-family="Georgia, serif" font-size="68" font-weight="700">
    Regularize seu terreno
  </text>
  <text x="118" y="506" fill="#F9FBF9" font-family="Georgia, serif" font-size="68" font-weight="700">
    com segurança técnica.
  </text>
  <text x="118" y="554" fill="#D6E7DC" font-family="Manrope, Arial, sans-serif" font-size="24">
    Topografia e agrimensura para regularização de imóveis urbanos e rurais.
  </text>

  <rect x="782" y="426" width="264" height="72" rx="36" fill="url(#accent)" stroke="rgba(214,231,220,0.16)"/>
  <text x="846" y="470" fill="#F7F3EA" font-family="Manrope, Arial, sans-serif" font-size="24" font-weight="700">
    Fale no WhatsApp
  </text>
</svg>
