<svg xmlns="http://www.w3.org/2000/svg" viewBox="0 0 1600 900" role="img" aria-label="Malha urbana para georreferenciamento">
  <rect width="1600" height="900" rx="40" fill="#1a2831"/>
  <g opacity=".22" fill="none" stroke="#f7f2e8">
    <path d="M116 118h1368v664H116z" stroke-width="2"/>
    <path d="M244 118v664M408 118v664M572 118v664M736 118v664M900 118v664M1064 118v664M1228 118v664" stroke-width="1"/>
    <path d="M116 246h1368M116 374h1368M116 502h1368M116 630h1368" stroke-width="1"/>
  </g>
  <g fill="#d4b276" fill-opacity=".16" stroke="#d4b276" stroke-opacity=".74" stroke-width="3">
    <rect x="306" y="236" width="190" height="116" rx="14"/>
    <rect x="538" y="236" width="172" height="116" rx="14"/>
    <rect x="748" y="236" width="164" height="116" rx="14"/>
    <rect x="952" y="236" width="240" height="116" rx="14"/>
    <rect x="306" y="392" width="278" height="146" rx="14"/>
    <rect x="620" y="392" width="172" height="146" rx="14"/>
    <rect x="828" y="392" width="364" height="146" rx="14"/>
    <rect x="306" y="576" width="190" height="126" rx="14"/>
    <rect x="538" y="576" width="248" height="126" rx="14"/>
    <rect x="826" y="576" width="366" height="126" rx="14"/>
  </g>
  <g opacity=".58" fill="none" stroke="#f7f2e8" stroke-width="4">
    <path d="M402 154v594M660 154v594M1060 154v594"/>
    <path d="M154 292h1292M154 562h1292"/>
  </g>
</svg>
